PathFileType	4	(X/Y/Z)	C:\Users\WrightLab\Desktop\Jo\P5V26.trc
DataRate	CameraRate	NumFrames	NumMarkers	Units	OrigDataRate	OrigDataStartFrame	OrigNumFrames
100.00	100.00	       21	19	mm	100.00	278	       739
Frame#	Time	Headset_Front			Headset_Back			Headset_Left			Headset_Right			Left_Shoulder			Right_Shoulder			Sternum			C7			Left Elbow			Right Elbow			Left Wrist			Right Wrist			Left ASIS			Right ASIS			S2			Left Knee			Right Knee			Left Ankle			Right Ankle			
		X1	Y1	Z1	X2	Y2	Z2	X3	Y3	Z3	X4	Y4	Z4	X5	Y5	Z5	X6	Y6	Z6	X7	Y7	Z7	X8	Y8	Z8	X9	Y9	Z9	X10	Y10	Z10	X11	Y11	Z11	X12	Y12	Z12	X13	Y13	Z13	X14	Y14	Z14	X15	Y15	Z15	X16	Y16	Z16	X17	Y17	Z17	X18	Y18	Z18	X19	Y19	Z19	

278	2.770	-290.00302	1716.99548	-659.93359							-421.70929	1541.73962	-574.05707	-81.63123	1480.94727	-777.11072	-480.16501	1427.90845	-703.77753	-276.98975	1286.81714	-671.54419	-316.88019	1500.73499	-861.40289	16.89360	1196.36853	-819.04932	-608.29620	1184.09021	-643.43872	26.65504	965.50812	-725.11462	-256.63501	954.79193	-970.01855	-131.87126	905.28827	-677.26642	-410.05795	915.01898	-667.07245	-598.96246	1082.37488	-416.44968	-141.55779	488.34253	-651.16602	-431.58435	454.28519	-758.69922	-188.82709	76.39749	-676.99738	-402.41129	172.34900	-1081.61609	
279	2.780	-289.54620	1717.12366	-652.36694							-421.60876	1541.30615	-567.85883	-81.07066	1481.42688	-770.71490	-479.96658	1429.04138	-698.45734	-276.67209	1286.71631	-664.54150	-316.20050	1501.68018	-855.27295	17.67562	1197.00452	-811.59961	-607.96161	1185.43127	-636.40887	26.68857	966.03522	-718.33002	-255.20584	955.41913	-960.95410	-131.27998	905.49512	-671.13788	-409.51086	915.47156	-660.99658	-598.96545	1084.04980	-409.11334	-138.61629	487.52206	-649.59430	-430.09109	454.73877	-747.92731	-188.82709	76.39749	-676.99738	-402.73508	179.26976	-1069.34131	
280	2.790	-289.13089	1717.48059	-644.60004							-421.42563	1540.96997	-560.74762	-80.48856	1482.05823	-763.88281	-479.50739	1429.58496	-691.77246	-276.70148	1286.35547	-658.65363	-315.56189	1502.46655	-848.67438	18.12965	1198.20020	-805.40192	-607.81653	1186.34814	-628.56891	27.22551	967.03625	-710.02185	-253.68060	955.38715	-951.22028	-130.12022	906.30066	-663.73602	-409.70151	914.24426	-654.04272	-599.72095	1085.63330	-401.53735	-134.70219	487.80435	-646.73065	-432.33542	456.47745	-735.98560	-188.75424	76.08419	-676.38776	-404.95627	188.92719	-1056.37146	
281	2.800	-288.53339	1717.13037	-635.92548							-421.30966	1540.73730	-554.49420	-79.95503	1482.30688	-756.86047	-478.65677	1429.89734	-685.15338	-276.72665	1287.06641	-652.80865	-314.93805	1503.24927	-841.92926	17.47634	1198.63123	-799.18579	-608.38953	1188.13074	-622.30621	26.89886	968.30792	-702.50323	-252.10054	955.60822	-941.76318	-131.11920	905.91693	-659.23071	-409.16626	915.46521	-648.13678	-600.42328	1087.04187	-394.10226	-131.33018	487.01331	-644.62140	-436.83273	459.18411	-725.66351	-189.56915	76.30471	-676.20630	-406.73364	197.17101	-1043.50720	
282	2.810	-288.08380	1717.39624	-628.08533							-421.24268	1541.03821	-548.47174	-79.59933	1482.96191	-750.54053	-478.04950	1430.27100	-679.15747	-276.16934	1288.13928	-647.17346	-314.43472	1504.09973	-835.55365	17.71504	1198.54675	-791.26099	-607.68622	1189.27002	-616.13599	25.91857	968.42621	-695.19348	-250.84683	956.87683	-934.57373	-129.93839	907.08441	-652.26190	-409.17117	916.21960	-642.72009	-600.68341	1088.33069	-386.66458	-127.65097	486.66653	-642.82166	-441.40079	459.97379	-712.76550	-189.55838	76.21696	-676.18909	-406.77670	203.96236	-1030.74158	
283	2.820	-287.66782	1717.36914	-621.52753							-421.23398	1540.72449	-542.26453	-79.38450	1483.66455	-744.54364	-476.81140	1431.01318	-672.92767	-276.70758	1288.36292	-642.30933	-313.99860	1505.15527	-829.60931	16.80861	1199.14856	-784.35138	-607.38849	1190.34070	-608.53644	24.82541	969.13702	-687.22742	-249.22977	957.45428	-924.97382	-128.64525	907.89111	-645.45868	-408.03159	915.93518	-636.54053	-601.98444	1089.48303	-380.34290	-123.59134	486.37643	-641.65564	-446.83862	462.73373	-700.11243	-189.33366	76.20603	-676.24188	-406.88605	210.56462	-1017.42828	
284	2.830	-287.31055	1717.68799	-613.69531							-421.33081	1540.65369	-536.00623	-79.08674	1483.91113	-737.55798	-478.10352	1432.69226	-667.04883	-276.53970	1289.06213	-637.14941	-313.55383	1506.09973	-822.88898	17.57121	1199.58826	-776.38806	-608.30133	1191.32007	-601.14795	24.72303	970.03748	-679.29742	-247.79314	958.19220	-917.33521	-128.35568	908.19910	-640.51868	-409.09918	916.49878	-630.18408	-602.43250	1090.93372	-373.43417	-120.06261	485.84976	-639.73346	-450.95004	465.41220	-684.89917	-190.31758	76.00576	-676.12982	-407.29306	216.52859	-1003.25195	
285	2.840	-287.01822	1717.73267	-607.03937							-421.40735	1540.71021	-530.11359	-79.07545	1484.91504	-731.38995	-477.88376	1433.55884	-660.82874	-276.71088	1289.02771	-630.57397	-313.34592	1507.08789	-817.60687	17.71462	1200.62415	-769.98688	-607.88269	1192.55249	-595.31683	24.60075	970.57794	-671.49255	-247.15277	958.29510	-908.54010	-128.59694	909.25079	-634.76941	-409.91287	916.83521	-623.64270	-603.94849	1092.02820	-366.82480	-115.90784	485.65903	-638.19379	-454.30249	467.50058	-668.42993	-190.63734	75.73011	-675.88190	-407.56787	222.10597	-988.08099	
286	2.850	-286.75922	1717.96484	-599.35669							-421.56210	1540.55811	-523.97516	-78.97523	1485.28784	-724.70215	-478.32901	1434.98535	-655.75189	-276.55396	1290.18152	-623.32343	-313.09332	1507.86084	-811.04700	18.00386	1200.45203	-762.25348	-608.04370	1194.37048	-589.15448	23.34511	971.77173	-664.38861	-245.60420	959.36053	-901.15131	-128.09001	909.72455	-628.99829	-411.00967	918.39227	-617.53827	-604.11682	1093.31372	-360.77591	-113.31036	484.95071	-637.35724	-456.94974	469.99075	-649.59827	-190.63734	75.73011	-675.88190	-407.90469	226.14043	-973.59491	
287	2.860	-286.53162	1717.97705	-592.43414							-421.72534	1540.70776	-518.12579	-78.84882	1486.56323	-718.97064	-477.72388	1435.22632	-649.15283	-276.13229	1291.55750	-618.00049	-313.05521	1508.86926	-805.80103	17.55101	1201.98376	-755.39948	-608.76251	1195.47510	-582.43793	21.97028	972.89392	-656.75104	-245.23987	960.09741	-892.46442	-127.08429	910.19183	-623.54614	-411.27710	918.10248	-610.64581	-605.00696	1095.54700	-354.37506	-109.33733	485.58170	-635.74341	-458.62256	472.03995	-631.03284	-190.30682	76.02696	-675.55145	-407.98511	230.01738	-957.51062	
288	2.870	-192.06711	1582.03687	-521.55634							-421.97253	1540.70032	-512.32758	-79.20707	1486.59644	-711.91443	-477.01544	1435.56238	-643.88074	-276.73062	1291.40112	-612.72150	-312.96906	1509.68628	-799.27032	16.79984	1202.96448	-748.76978	-608.66095	1196.97607	-576.41498	21.89610	973.37134	-649.50055	-245.34587	960.99762	-885.22034	-125.87856	910.87335	-618.38562	-411.96945	919.20660	-605.27838	-605.47687	1096.29492	-347.71078	-106.80612	486.24677	-633.97717	-458.85669	474.19888	-612.15063	-190.34561	76.35968	-675.36938	-406.75055	232.00549	-941.68927	
289	2.880	-286.60098	1719.03992	-580.82660							-422.29648	1540.81946	-506.70938	-79.30579	1487.72375	-706.25171	-477.50192	1436.45642	-637.35608	-276.08911	1291.89844	-607.90259	-313.07172	1510.72656	-794.05219	17.37671	1203.66052	-741.54370	-609.10968	1197.76001	-570.94098	20.85615	973.81958	-642.02625	-245.20363	961.71173	-878.60181	-125.72286	911.73999	-614.09247	-411.97845	920.01160	-598.95795	-606.66559	1097.07373	-340.82434	-104.09690	486.96863	-631.56110	-459.84909	478.25662	-594.52539	-190.34561	76.35968	-675.36938	-407.76898	234.82370	-924.96802	
290	2.890	-286.54230	1718.87622	-573.45978							-422.61252	1540.96448	-501.27832	-80.02741	1488.65686	-699.90100	-477.20789	1437.02515	-632.20428	-276.14386	1293.00439	-601.94684	-313.18906	1511.37585	-787.76593	17.29597	1204.57605	-734.62073	-609.54779	1199.02844	-565.01294	19.53962	975.41443	-634.96637	-245.57468	962.35217	-871.66425	-125.19353	912.37402	-609.76471	-412.69199	921.11096	-591.59814	-607.15149	1098.52844	-334.74353	-101.58131	488.48346	-628.89050	-458.05548	482.22202	-577.28967	-190.38380	76.69267	-675.18732	-407.27844	235.69292	-906.71564	
291	2.900	-192.65001	1581.95410	-503.79416							-422.87784	1541.07458	-495.17905	-80.04833	1489.62134	-693.86133	-476.67410	1437.32031	-626.15930	-276.62622	1293.12891	-596.44342	-313.34076	1512.46387	-782.47089	17.22859	1205.39685	-728.24976	-609.79126	1199.44666	-557.37781	19.51948	976.54407	-627.94025	-246.65526	963.05237	-865.14612	-125.66685	912.68927	-605.10535	-412.44019	920.94482	-584.60095	-608.05023	1099.53589	-328.62979	-99.48434	489.62827	-624.42377	-458.56177	487.72296	-562.43732	-190.38380	76.69267	-675.18732	-408.07977	234.50325	-889.93359	
292	2.910	-335.39285	1441.33447	-418.68121							-423.27634	1541.00037	-489.21625	-80.25682	1490.98193	-687.90369	-477.95047	1439.07275	-620.78876	-276.33066	1294.35754	-591.77911	-313.58414	1513.08777	-776.28772	16.83686	1206.33594	-721.38489	-610.90088	1201.04614	-552.18829	17.35131	977.68799	-621.24518	-247.23329	964.05182	-859.06689	-125.12943	912.87708	-601.25305	-413.13431	921.80255	-577.43036	-608.44708	1100.49170	-323.11038	-97.82635	491.11789	-621.11554	-458.20691	493.08450	-547.01166	-190.28786	76.99659	-674.97546	-406.58804	233.55525	-872.69098	
293	2.920	-287.34354	1719.26404	-554.94104							-423.70782	1540.79639	-483.37469	-80.40459	1492.01611	-682.98792	-478.30484	1439.16174	-615.31512	-276.13266	1294.69763	-586.81940	-313.92078	1514.15295	-771.24030	16.32270	1206.98840	-714.46844	-611.28857	1202.26074	-546.45197	17.42941	979.12415	-614.85883	-248.28578	964.92175	-853.29169	-124.65387	913.48578	-596.54126	-413.43436	922.30042	-570.90466	-609.32501	1101.90259	-316.71225	-96.52444	491.74164	-615.98187	-459.48557	498.28809	-533.42871	-190.64282	77.34794	-675.06537	-408.30963	231.56953	-855.09930	
294	2.930	-287.82297	1719.62244	-548.25055							-424.20639	1540.65503	-477.92566	-80.68272	1493.16431	-678.12238	-479.19321	1440.49573	-610.25220	-276.43469	1295.44702	-580.91602	-314.39954	1514.69519	-765.51666	16.53918	1207.96826	-708.20361	-611.73883	1203.02283	-540.55914	14.45745	979.30798	-608.04712	-250.11201	965.69122	-847.63232	-124.93636	913.97333	-592.14587	-413.51691	923.05432	-562.52026	-610.34015	1102.49182	-311.00851	-96.18255	492.46863	-610.69489	-460.41943	503.42670	-519.86664	-190.88274	77.73351	-674.51099	-407.90390	228.96336	-836.78571	
295	2.940	-336.26321	1440.78638	-405.94812							-424.74860	1540.49158	-472.43890	-81.49934	1493.90125	-672.83771	-478.78400	1440.21533	-604.63788	-277.07870	1295.98608	-575.74847	-314.82584	1515.61389	-760.41003	15.84609	1209.59326	-703.27295	-612.86285	1204.03503	-535.16663	14.32440	980.62085	-601.47321	-251.71100	966.26251	-841.79364	-124.32401	914.91986	-586.46942	-413.89136	923.52899	-555.86694	-610.78369	1103.22070	-305.52383	-95.93114	492.25256	-605.62317	-461.49390	508.55908	-505.75433	-190.86914	78.17331	-674.71637	-408.22479	224.65105	-819.15814	
296	2.950	-288.97461	1719.88123	-536.07123							-425.29364	1540.34363	-466.90247	-82.20720	1494.89600	-666.98480	-479.53506	1440.85645	-599.10748	-277.11084	1296.71204	-570.13293	-315.34674	1516.26526	-755.07446	15.00217	1210.14966	-697.44421	-613.35211	1205.34680	-529.52521	13.00449	981.53979	-594.51630	-253.77611	967.59741	-836.37201	-124.14937	915.61603	-580.93616	-414.67484	924.25519	-548.18854	-611.68292	1104.38184	-299.14264	-96.45416	491.66675	-600.08521	-461.95685	513.99432	-491.89850	-190.86914	78.17331	-674.71637	-408.32941	220.22430	-800.65674	
297	2.960	-289.47937	1719.55579	-529.18042							-426.61661	1539.48218	-461.37106	-82.02541	1494.94958	-660.93439	-480.14319	1440.52795	-593.45813	-277.08191	1296.94507	-565.00519	-315.88666	1516.88953	-749.22632	15.01034	1210.91528	-690.78589	-614.27820	1205.95215	-524.47034	11.05540	983.49951	-586.95789	-255.73967	968.34686	-831.07855	-123.55487	915.92365	-575.45184	-415.58414	925.06238	-541.56354	-612.94196	1104.69690	-293.51422	-96.48868	491.40558	-594.65698	-460.87546	519.01306	-479.69409	-191.19885	78.35738	-674.31635	-409.63361	215.32227	-781.92157	
298	2.970	-338.57730	1439.23010	-390.15460							-428.27383	1539.87549	-456.70657	-82.63258	1495.93628	-655.54138	-479.46780	1441.15796	-588.09674	-277.15228	1296.81641	-559.68060	-316.51385	1517.47473	-743.69159	14.82302	1210.97742	-683.80865	-615.18848	1206.36230	-518.08844	10.98686	984.23193	-582.46460	-257.79456	969.39276	-826.16803	-124.04025	914.90247	-574.47308	-416.76605	925.34882	-535.40442	-613.38696	1105.59766	-287.92453	-97.88239	490.86459	-589.65948	-461.99918	524.69867	-467.46677	-190.86819	78.65400	-673.98602	-410.18695	209.46082	-762.87897	
